<?xml version="1.0" encoding="utf-8"?>
<!-- Generator: Adobe Illustrator 23.0.3, SVG Export Plug-In . SVG Version: 6.00 Build 0)  -->
<svg version="1.1" xmlns="http://www.w3.org/2000/svg" xmlns:xlink="http://www.w3.org/1999/xlink" x="0px" y="0px" width="227px"
	 height="83.6px" viewBox="0 0 227 83.6" style="enable-background:new 0 0 227 83.6;" xml:space="preserve">
<style type="text/css">
	.Arched_x0020_Green{fill:url(#SVGID_1_);stroke:#FFFFFF;stroke-width:0.25;stroke-miterlimit:1;}
	.st0{fill:#162B75;}
	.st1{fill:#878A8F;}
</style>
<linearGradient id="SVGID_1_" gradientUnits="userSpaceOnUse" x1="0.4971" y1="621.603" x2="1.2042" y2="620.8959">
	<stop  offset="0" style="stop-color:#63AA52"/>
	<stop  offset="0.9831" style="stop-color:#293922"/>
</linearGradient>
<g id="Layer_1">
	<g>
		<g>
			<g>
				<path class="st0" d="M1,62l5.4-2.8c2.4,4.8,6.1,7.1,11.2,7.1c4.9,0,8.3-1.6,8.3-5.2c0-3.5-2.5-5.1-9.2-7.1
					C8.8,51.6,2.5,49.4,2.5,41.7c0-6.9,5.6-11.4,13.8-11.4c8,0,12.7,3.9,15.1,8.7l-5,3.4c-2.4-4-5.9-5.9-10.2-5.9
					c-4.5,0-7.1,1.6-7.1,4.6c0,3.8,2.9,5,9.5,7c7.7,2.2,13.8,4.8,13.8,12.4c0,6.6-5.6,11.8-15.3,11.8C9.3,72.3,3.6,68.1,1,62z
					 M37.5,64.5c0-6.3,5.4-10.5,18.9-12v-0.9c0-2.9-1.5-4.2-4.8-4.2c-4,0-7.3,2-9.8,3.9l-3.3-4.2c3.1-2.8,8-5.2,14-5.2
					c7.8,0,10.4,3.7,10.4,10.5v12c0,3.5,0.2,5.6,0.8,7.1h-6.8c-0.4-1.2-0.7-2.1-0.7-3.7c-3,3-6.4,4.2-10.7,4.2
					C41,72,37.5,69.3,37.5,64.5z M56.5,63.4V57c-8,1.1-12.3,3.1-12.3,6.2c0,2.3,1.6,3.5,4,3.5C51.6,66.8,54.3,65.4,56.5,63.4z
					 M74.1,71.5V47.8h-5v-5.4h5v-3c0-4.9,2-8.6,9.4-8.6c1.3,0,3.5,0.2,4,0.3v5.2c-0.4-0.1-1.5-0.2-2.3-0.2c-2.4,0-4.4,0.7-4.4,3.8
					v2.6h6.3v5.4h-6.3v23.7H74.1z M90.6,57c0-11,7.8-15.1,13.8-15.1c6.5,0,12.7,3.9,12.7,15.7v1.6H97.4c0.3,5.2,3.5,7.5,7.8,7.5
					c3.8,0,6-1.3,8.1-3.4l3.6,3.5c-3,3.3-7,5.2-12.2,5.2C97.4,72.1,90.6,67.7,90.6,57z M111,54.2c-0.4-4.4-2.6-6.8-6.6-6.8
					c-3.3,0-6.3,1.9-6.9,6.8H111z"/>
			</g>
			<g>
				<polygon class="st0" points="125.6,71.5 125.6,31.1 130.4,31.1 130.4,51.9 148.8,31.1 154.6,31.1 140.7,46.5 156.5,71.5 
					150.9,71.5 137.5,50.1 130.4,57.8 130.4,71.5 				"/>
				<path class="st0" d="M159.1,57.1c0-10.5,7-15,13.1-15c6.8,0,12,4.8,12,15.3v1h-20.4c0.2,6.5,3.9,10,8.7,10
					c4.2,0,6.5-1.7,8.7-4.7l2.7,2.4c-2.7,3.8-6.3,6.1-11.8,6.1C165.3,72.1,159.1,67.1,159.1,57.1z M179.7,54.6
					c-0.4-5.1-2.8-8.6-7.6-8.6c-3.9,0-7.5,2.7-8.2,8.6H179.7z"/>
				<path class="st0" d="M187.6,81.9l1.1-3.8c0.8,0.2,2.2,0.5,4.3,0.5c3,0,4.4-1.3,5.5-4.1l1.1-2.8l-11.2-29h5l8.5,23.4h0.1
					l8.5-23.4h4.8l-12.4,32.2c-2,5.1-4.2,7.8-9.8,7.8C190.5,82.6,188.9,82.3,187.6,81.9z"/>
			</g>
		</g>
		<path class="st0" d="M217,46.9c0-2.5,1.9-4.4,4.4-4.4c2.5,0,4.4,1.9,4.4,4.4c0,2.5-1.9,4.4-4.4,4.4C218.9,51.3,217,49.4,217,46.9z
			 M224.9,46.9c0-2-1.5-3.6-3.5-3.6c-2,0-3.5,1.5-3.5,3.6c0,2,1.5,3.6,3.5,3.6C223.4,50.5,224.9,49,224.9,46.9z M219.7,44.4h1.9
			c1.2,0,1.9,0.5,1.9,1.6c0,0.7-0.3,1.1-0.9,1.4l1,1.8h-1.2l-0.9-1.7h-0.6v1.7h-1.2V44.4z M221.5,46.7c0.5,0,0.8-0.2,0.8-0.6
			c0-0.4-0.3-0.6-0.8-0.6h-0.6v1.2H221.5z"/>
	</g>
</g>
<g id="Layer_2">
	<g>
		<path class="st1" d="M32.8,1.9h1.2l4,11.4h-1.1l-1.2-3.5H31l-1.2,3.5h-1.1L32.8,1.9z M35.3,8.9l-1.9-5.6h0l-1.9,5.6H35.3z"/>
		<path class="st1" d="M40.6,2H42l3.8,9.9h0L49.6,2H51v11.3h-1.1V3.8h0c-0.2,0.5-0.4,1.3-0.7,2l-2.9,7.5h-1l-2.9-7.5
			c-0.3-0.7-0.5-1.2-0.7-2h0v9.5h-1V2z"/>
		<path class="st1" d="M54.5,2h6.8v1h-5.7v3.8h4.2v1h-4.2v4.5h6v1h-7.1V2z"/>
		<path class="st1" d="M64.4,2h3.8c2.5,0,3.9,1.1,3.9,3.1c0,1.8-1.1,2.8-2.7,3.1l2.9,5.2H71l-2.8-5.1h-2.8v5.1h-1.1V2z M68.1,7.3
			c1.9,0,2.9-0.5,2.9-2.2C71,3.5,70,3,68.1,3h-2.6v4.3H68.1z"/>
		<path class="st1" d="M75.4,2h1.1v11.3h-1.1V2z"/>
		<path class="st1" d="M79.6,7.6c0-3.4,1.9-5.8,4.7-5.8c2.3,0,3.6,1.4,4.1,3.5l-1,0.3c-0.5-1.8-1.3-2.7-3.1-2.7
			c-2.2,0-3.6,1.9-3.6,4.8c0,3.1,1.4,5,3.6,5c1.7,0,2.7-1,3.2-2.9l1,0.2c-0.6,2.2-2,3.6-4.3,3.6C81.5,13.5,79.6,11.2,79.6,7.6z"/>
		<path class="st1" d="M94.2,1.9h1.2l4,11.4h-1.1L97,9.8h-4.6l-1.2,3.5h-1.1L94.2,1.9z M96.7,8.9l-1.9-5.6h0l-1.9,5.6H96.7z"/>
		<path class="st1" d="M102,2h1.2l6.2,9.3h0V2h1v11.3h-1L103,3.7h0v9.6h-1V2z"/>
		<path class="st1" d="M118,2h6.8v1H119v3.8h4.2v1H119v4.5h6v1H118V2z"/>
		<path class="st1" d="M130.8,7.2L127.3,2h1.3l2.8,4.4l2.8-4.4h1.2L132,7.2l3.9,6.1h-1.2l-3.4-5.2l-3.4,5.2h-1.1L130.8,7.2z"/>
		<path class="st1" d="M138.5,2h3.8c2.5,0,4,1,4,3.1c0,2.3-1.7,3.2-4.1,3.2h-2.6v5h-1.1V2z M142.2,7.3c1.9,0,2.9-0.6,2.9-2.2
			c0-1.5-1-2.1-2.9-2.1h-2.6v4.3H142.2z"/>
		<path class="st1" d="M148.9,2h3.8c2.5,0,3.9,1.1,3.9,3.1c0,1.8-1.1,2.8-2.7,3.1l2.9,5.2h-1.2l-2.8-5.1H150v5.1h-1.1V2z M152.6,7.3
			c1.9,0,2.9-0.5,2.9-2.2c0-1.6-1-2.1-2.9-2.1H150v4.3H152.6z"/>
		<path class="st1" d="M159.8,2h6.8v1h-5.7v3.8h4.2v1h-4.2v4.5h6v1h-7.1V2z"/>
		<path class="st1" d="M168.8,10.5l1-0.4c0.5,1.6,1.7,2.4,3.2,2.4c1.7,0,2.8-0.8,2.8-2.1c0-1.2-0.6-1.8-3-2.5
			c-2.4-0.8-3.7-1.4-3.7-3.3c0-1.6,1.5-2.9,3.5-2.9c2.1,0,3.4,1.1,3.9,2.6l-0.9,0.4c-0.6-1.5-1.6-2.1-3-2.1c-1.5,0-2.4,0.8-2.4,1.9
			c0,1.3,0.8,1.7,3.1,2.5c2.4,0.8,3.5,1.5,3.5,3.4c0,1.9-1.7,3.1-3.9,3.1C170.8,13.5,169.3,12.4,168.8,10.5z"/>
		<path class="st1" d="M179.2,10.5l1-0.4c0.5,1.6,1.7,2.4,3.2,2.4c1.7,0,2.8-0.8,2.8-2.1c0-1.2-0.6-1.8-3-2.5
			c-2.4-0.8-3.7-1.4-3.7-3.3c0-1.6,1.5-2.9,3.5-2.9c2.1,0,3.4,1.1,3.9,2.6l-0.9,0.4c-0.6-1.5-1.6-2.1-3-2.1c-1.5,0-2.4,0.8-2.4,1.9
			c0,1.3,0.8,1.7,3.1,2.5c2.4,0.8,3.5,1.5,3.5,3.4c0,1.9-1.7,3.1-3.9,3.1C181.2,13.5,179.7,12.4,179.2,10.5z"/>
	</g>
</g>
</svg>
