<svg id="Layer_1" data-name="Layer 1" xmlns="http://www.w3.org/2000/svg" viewBox="0 0 478.99 171.9"><defs><style>.cls-1{fill:none;}.cls-2{fill:#ff5f00;}.cls-3{fill:#eb001b;}.cls-4{fill:#f79e1b;}</style></defs><title>mc_idcheck_hrz_pos</title><rect class="cls-1" width="478.99" height="171.9"/><path d="M338.65,353.78H335.6v-35h3.05Zm23.25-35a23.75,23.75,0,0,1,7.88,1.22,16.76,16.76,0,0,1,6,3.5A15.34,15.34,0,0,1,379.5,329a20.56,20.56,0,0,1,0,14.53,15.34,15.34,0,0,1-3.77,5.51,16.75,16.75,0,0,1-6,3.5,23.75,23.75,0,0,1-7.87,1.22H349.12v-35Zm-9.72,2.9v29.2h9.72a20.16,20.16,0,0,0,6.75-1,13.67,13.67,0,0,0,4.92-2.94,12.24,12.24,0,0,0,3-4.6,18.23,18.23,0,0,0,0-12,12.36,12.36,0,0,0-3-4.61,13.44,13.44,0,0,0-4.92-2.94,20.37,20.37,0,0,0-6.75-1Zm66.1-3.3a18.73,18.73,0,0,1,4.35.5,17.61,17.61,0,0,1,3.94,1.44,15.72,15.72,0,0,1,3.33,2.26,13.86,13.86,0,0,1,2.54,3l-2.55,1.7a12.35,12.35,0,0,0-2.14-2.48,13.47,13.47,0,0,0-2.72-1.87,14.06,14.06,0,0,0-3.2-1.19,15.09,15.09,0,0,0-3.54-.41,15.5,15.5,0,0,0-5.81,1.08,13.85,13.85,0,0,0-4.67,3,14.25,14.25,0,0,0-3.12,4.72,16.92,16.92,0,0,0,0,12.2,14.24,14.24,0,0,0,3.13,4.73,13.85,13.85,0,0,0,4.67,3,15.5,15.5,0,0,0,5.81,1.08,15.34,15.34,0,0,0,3.52-.4,13.6,13.6,0,0,0,3.19-1.17,13.4,13.4,0,0,0,2.73-1.87,12,12,0,0,0,2.14-2.5l2.5,1.83a14.89,14.89,0,0,1-2.59,3,16.16,16.16,0,0,1-3.3,2.22,17.1,17.1,0,0,1-3.89,1.41,19.53,19.53,0,0,1-11.41-.84,17.13,17.13,0,0,1-5.69-3.69,16.9,16.9,0,0,1-3.76-5.65,19.87,19.87,0,0,1,0-14.46,16.88,16.88,0,0,1,3.76-5.66,17.13,17.13,0,0,1,5.69-3.69A18.86,18.86,0,0,1,418.27,318.38Zm24.53,16a9,9,0,0,1,1.64-2,8.74,8.74,0,0,1,2-1.39,10.16,10.16,0,0,1,2.3-.8,11.21,11.21,0,0,1,2.4-.26,11.73,11.73,0,0,1,4,.66,9.07,9.07,0,0,1,3.14,1.89,8.27,8.27,0,0,1,2,3,10.43,10.43,0,0,1,.71,3.94v14.42h-2.85V340.23a9.63,9.63,0,0,0-.5-3.2,6.4,6.4,0,0,0-1.48-2.41,6.47,6.47,0,0,0-2.37-1.51,9.06,9.06,0,0,0-3.2-.53,8.4,8.4,0,0,0-3.09.56,7.38,7.38,0,0,0-2.5,1.6,7.56,7.56,0,0,0-1.67,2.48,8,8,0,0,0-.61,3.16v13.4h-2.85v-36h2.85Zm36.87-4.45a10.69,10.69,0,0,1,4.36.89,10.35,10.35,0,0,1,3.47,2.47,11.75,11.75,0,0,1,2.31,3.8,13.75,13.75,0,0,1,.88,4.84q0,.33,0,.61t0,.56H470.92a10.12,10.12,0,0,0,.91,3.65,8.63,8.63,0,0,0,2,2.71,8.4,8.4,0,0,0,2.81,1.69,9.86,9.86,0,0,0,3.39.58,10.45,10.45,0,0,0,4.42-.9,12.38,12.38,0,0,0,3.53-2.45l1.53,2a14,14,0,0,1-2.29,1.88,12.19,12.19,0,0,1-2.37,1.2,11.78,11.78,0,0,1-2.46.63,18.28,18.28,0,0,1-2.53.17,12.45,12.45,0,0,1-4.75-.89,11,11,0,0,1-3.75-2.49A11.24,11.24,0,0,1,468.9,347,13.36,13.36,0,0,1,468,342a13.14,13.14,0,0,1,.89-4.89,11.61,11.61,0,0,1,2.45-3.85,11.05,11.05,0,0,1,3.7-2.51A11.75,11.75,0,0,1,479.67,329.88Zm0,2.53a8.56,8.56,0,0,0-3.29.61,8.22,8.22,0,0,0-2.61,1.7,8.83,8.83,0,0,0-1.84,2.59,10.28,10.28,0,0,0-.91,3.3H487.8a10.19,10.19,0,0,0-.83-3.34,8.42,8.42,0,0,0-1.76-2.59,7.83,7.83,0,0,0-5.59-2.27Zm28.47-2.53a12.46,12.46,0,0,1,4.86.94,10.41,10.41,0,0,1,3.81,2.71l-1.85,1.92a10.26,10.26,0,0,0-3.09-2.14,9.28,9.28,0,0,0-3.81-.76,9,9,0,0,0-3.59.71,8.82,8.82,0,0,0-2.89,2,9,9,0,0,0-1.91,3,10.78,10.78,0,0,0,0,7.58,8.75,8.75,0,0,0,4.8,5,9,9,0,0,0,3.59.71,9.24,9.24,0,0,0,3.86-.8,10.76,10.76,0,0,0,3.11-2.12l1.78,1.95a10.66,10.66,0,0,1-3.83,2.71,12.37,12.37,0,0,1-4.85.94,12.49,12.49,0,0,1-4.86-.92,11.35,11.35,0,0,1-6.3-6.39,13.52,13.52,0,0,1,0-9.64,11.33,11.33,0,0,1,6.3-6.4A12.49,12.49,0,0,1,508.1,329.88Zm18.25,10.3h3.82l9.9-9.92h3.6l-11.2,11.1,11.4,12.42h-3.62l-10.08-11h-3.82v11H523.5v-36h2.85ZM372.89,306.34v-15c0-5.66-3.61-9.47-9.42-9.52a9.27,9.27,0,0,0-8.41,4.26,8.79,8.79,0,0,0-7.91-4.26,7.92,7.92,0,0,0-7,3.56v-3h-5.21v23.94h5.26V293.07c0-4.16,2.3-6.36,5.86-6.36s5.21,2.25,5.21,6.31v13.32h5.26V293.07c0-4.16,2.4-6.36,5.86-6.36s5.26,2.25,5.26,6.31v13.32Zm77.83-23.94h-8.51v-7.26H437v7.26h-4.86v4.76H437v10.92c0,5.56,2.15,8.87,8.31,8.87a12.24,12.24,0,0,0,6.51-1.85l-1.5-4.46a9.62,9.62,0,0,1-4.61,1.35c-2.6,0-3.46-1.6-3.46-4V287.16h8.51Zm44.43-.6a7.06,7.06,0,0,0-6.31,3.51V282.4h-5.16v23.94h5.21V292.92c0-4,1.7-6.16,5.11-6.16a8.49,8.49,0,0,1,3.26.6l1.6-4.91a11.13,11.13,0,0,0-3.71-.65ZM428,284.31a17.9,17.9,0,0,0-9.77-2.5c-6.06,0-10,2.9-10,7.66,0,3.91,2.9,6.31,8.26,7.06l2.45.35c2.85.4,4.21,1.15,4.21,2.5,0,1.85-1.9,2.9-5.46,2.9a12.76,12.76,0,0,1-8-2.5l-2.45,4.06a17.27,17.27,0,0,0,10.37,3.11c6.91,0,10.92-3.26,10.92-7.81,0-4.21-3.16-6.41-8.36-7.16l-2.45-.35c-2.25-.3-4.06-.75-4.06-2.35,0-1.75,1.7-2.81,4.56-2.81a15.43,15.43,0,0,1,7.46,2.05Zm139.54-2.5a7.06,7.06,0,0,0-6.31,3.51V282.4h-5.16v23.94h5.21V292.92c0-4,1.7-6.16,5.11-6.16a8.49,8.49,0,0,1,3.26.6l1.6-4.91a11.13,11.13,0,0,0-3.71-.65Zm-67.12,12.57c0,7.26,5.06,12.57,12.77,12.57a12.54,12.54,0,0,0,8.61-2.86l-2.5-4.21A10.52,10.52,0,0,1,513,302c-4.16,0-7.21-3.06-7.21-7.66s3.06-7.61,7.21-7.66a10.52,10.52,0,0,1,6.26,2.15l2.5-4.21a12.54,12.54,0,0,0-8.61-2.86c-7.71,0-12.77,5.31-12.77,12.57Zm48.78,0v-12H544v2.91a9.08,9.08,0,0,0-7.56-3.51c-6.71,0-12,5.26-12,12.57s5.26,12.57,12,12.57a9.08,9.08,0,0,0,7.56-3.51v2.9h5.21Zm-19.38,0c0-4.21,2.75-7.66,7.26-7.66,4.31,0,7.21,3.31,7.21,7.66s-2.9,7.66-7.21,7.66c-4.51,0-7.26-3.46-7.26-7.66ZM467,281.8c-7,0-11.92,5.11-11.92,12.57,0,7.61,5.11,12.57,12.27,12.57a14.55,14.55,0,0,0,9.82-3.36l-2.55-3.86a11.41,11.41,0,0,1-7,2.5c-3.36,0-6.41-1.55-7.16-5.86h17.78c.05-.65.1-1.3.1-2,0-7.46-4.66-12.57-11.37-12.57Zm-.1,4.66c3.36,0,5.51,2.1,6.06,5.81H460.49c.55-3.46,2.65-5.81,6.36-5.81Zm130.68,7.91V272.79h-5.21v12.52a9.08,9.08,0,0,0-7.56-3.51c-6.71,0-12,5.26-12,12.57s5.26,12.57,12,12.57a9.08,9.08,0,0,0,7.56-3.51v2.9h5.21Zm6.09,9.76a1.53,1.53,0,0,1,.6.12,1.57,1.57,0,0,1,.49.33,1.53,1.53,0,0,1,.33.48,1.49,1.49,0,0,1,0,1.18,1.54,1.54,0,0,1-.33.48,1.6,1.6,0,0,1-.49.33,1.5,1.5,0,0,1-.6.12,1.55,1.55,0,0,1-1.44-.93,1.5,1.5,0,0,1,0-1.18,1.52,1.52,0,0,1,.82-.81A1.57,1.57,0,0,1,603.62,304.13Zm0,2.7a1.13,1.13,0,0,0,.46-.09,1.21,1.21,0,0,0,.37-.25,1.19,1.19,0,0,0,0-1.68,1.18,1.18,0,0,0-.37-.25,1.15,1.15,0,0,0-.46-.09,1.19,1.19,0,0,0-.47.09,1.19,1.19,0,0,0-.38,1.93,1.19,1.19,0,0,0,.38.25A1.18,1.18,0,0,0,603.62,306.84Zm.09-1.9a.64.64,0,0,1,.42.12.4.4,0,0,1,.15.33.38.38,0,0,1-.12.29.56.56,0,0,1-.33.14l.46.53h-.36l-.43-.53h-.14v.53h-.3v-1.41Zm-.35.26v.38h.35a.34.34,0,0,0,.19,0,.16.16,0,0,0,.07-.14.16.16,0,0,0-.07-.14.34.34,0,0,0-.19,0Zm-25.21-10.83c0-4.21,2.75-7.66,7.26-7.66,4.31,0,7.21,3.31,7.21,7.66s-2.9,7.66-7.21,7.66c-4.51,0-7.26-3.46-7.26-7.66Zm-175.9,0v-12H397v2.91a9.08,9.08,0,0,0-7.56-3.51c-6.71,0-12,5.26-12,12.57s5.26,12.57,12,12.57a9.08,9.08,0,0,0,7.56-3.51v2.9h5.21Zm-19.38,0c0-4.21,2.75-7.66,7.26-7.66,4.31,0,7.21,3.31,7.21,7.66s-2.9,7.66-7.21,7.66C385.61,302,382.86,298.58,382.86,294.37ZM547.54,352.6h-.45v1.18h-.22V352.6h-.45v-.21h1.12Zm1.72,1.18H549v-1.14l-.41,1h-.24l-.41-1v1.13h-.22v-1.39h.34l.4,1,.4-1h.34Z" transform="translate(-156.5 -220.05)"/><g id="_Group_" data-name="&lt;Group&gt;"><rect class="cls-2" x="80.46" y="45.86" width="31.5" height="56.61"/><path id="_Path_" data-name="&lt;Path&gt;" class="cls-3" d="M239,294.22a35.94,35.94,0,0,1,13.75-28.3,36,36,0,1,0,0,56.61A35.94,35.94,0,0,1,239,294.22Z" transform="translate(-156.5 -220.05)"/><path class="cls-4" d="M307.52,316.52v-1.16H308v-.24H306.8v.24h.47v1.16Zm2.31,0v-1.4h-.36l-.42,1-.42-1h-.37v1.4h.26v-1.05l.39.91h.27l.39-.91v1.06Z" transform="translate(-156.5 -220.05)"/><path class="cls-4" d="M311,294.22a36,36,0,0,1-58.25,28.3,36,36,0,0,0,0-56.61A36,36,0,0,1,311,294.22Z" transform="translate(-156.5 -220.05)"/></g></svg>