<svg id="Layer_1" data-name="Layer 1" xmlns="http://www.w3.org/2000/svg" viewBox="0 0 325.98 171.13"><defs><style>.cls-1{fill:none;}.cls-2{fill:#e69e44;}.cls-3{fill:#d24a43;}</style></defs><title>mc</title><rect class="cls-1" width="325.98" height="171.13"/><path class="cls-2" d="M296.73,319.2a11,11,0,0,0-6.35-1.87c-3.08,0-5.55.64-5.55,3.91,0,5.78,11.21,3.62,11.21,16,0,11.27-7.4,14.2-14.1,14.2a23.71,23.71,0,0,1-8.93-2.11l1.82-8.29a11.76,11.76,0,0,0,7.11,2.33c2.4,0,6.15-.65,6.15-4.84,0-6.55-11.21-4.11-11.21-15.61,0-10.51,6.55-13.66,12.86-13.66,3.56,0,6.9.52,8.86,1.82Z" transform="translate(-233.01 -220.44)"/><path class="cls-2" d="M319.25,350a23.37,23.37,0,0,1-7.79,1.33c-8.5,0-12.93-5-12.93-14.57,0-11.16,5.64-19.4,13.3-19.4,6.27,0,10.27,4.6,10.27,11.83a39.82,39.82,0,0,1-.92,8H306a10.07,10.07,0,0,0-.06,1c0,3.79,2.27,5.71,6.68,5.71a16.36,16.36,0,0,0,7.9-2.06ZM315,330.68c0-.69.06-1.23.06-1.65,0-2.65-1.34-4.2-3.6-4.2-2.43,0-4.16,2.09-4.85,5.82Z" transform="translate(-233.01 -220.44)"/><path class="cls-2" d="M341.53,350a15.3,15.3,0,0,1-6.76,1.25c-6.65,0-10.77-6.65-10.77-14.74,0-10.59,6-19,14.74-19a16,16,0,0,1,7.14,2.16l-1.68,7.77a9.33,9.33,0,0,0-5.08-1.75c-4.07,0-7,3.73-7,10.41,0,3.84,2.11,7,5.44,7a9.15,9.15,0,0,0,5.08-1.42Z" transform="translate(-233.01 -220.44)"/><path class="cls-2" d="M370,341.88c-.39,2.8-.75,5.52-1,8.44h-7.32l.62-5.26h-.07c-2.29,3.57-4.67,6-8.81,6-4.6,0-7.09-4.84-7.09-11.15a41,41,0,0,1,.62-6.81L349,318h8.15L355,333.14a36.15,36.15,0,0,0-.53,4.91c0,1.9.87,3.83,3.06,3.71,3.34,0,5.31-4.09,5.87-8.85L365.65,318h7.89Z" transform="translate(-233.01 -220.44)"/><path class="cls-2" d="M390.59,317.72a3,3,0,0,0-.78-.09c-2.47,0-3.92,1.43-6.24,5.29l.67-4.94h-6.89l-4.65,32.53h7.61c2.74-19.9,3.46-23.33,7.11-23.33a3.27,3.27,0,0,1,.55,0,34.22,34.22,0,0,1,2.89-9.45Z" transform="translate(-233.01 -220.44)"/><path class="cls-2" d="M409.75,350a23.45,23.45,0,0,1-7.8,1.33c-8.51,0-12.94-5-12.94-14.57,0-11.16,5.65-19.4,13.3-19.4,6.27,0,10.28,4.6,10.28,11.83a38.51,38.51,0,0,1-1,8H396.5c0,.49-.07.73-.07,1,0,3.79,2.27,5.71,6.68,5.71a16.38,16.38,0,0,0,7.91-2.06Zm-4.28-19.35c.05-.69.08-1.23.08-1.65,0-2.65-1.35-4.2-3.6-4.2-2.43,0-4.16,2.09-4.86,5.82Z" transform="translate(-233.01 -220.44)"/><path class="cls-2" d="M441,311.77l-1.25,8.67a13.36,13.36,0,0,0-6.81-2.16c-5.69,0-9.67,6.19-9.67,15,0,6.08,2.66,9.75,7.1,9.75a13.32,13.32,0,0,0,6.47-2.06l-1.32,9.12a21.3,21.3,0,0,1-6.75,1.17c-8.2,0-13.31-6.63-13.31-17.27,0-14.32,7.05-24.31,17.15-24.31a13,13,0,0,1,3.42.43l3.12.88C440.09,311.37,440.29,311.44,441,311.77Z" transform="translate(-233.01 -220.44)"/><path class="cls-2" d="M456.44,332c0,7.37-2.28,11.72-5.88,11.72-2.63.08-4.22-2.85-4.22-7.23,0-5.18,2.33-11,6.06-11C455.4,325.41,456.44,328.59,456.44,332Zm8,.14c0-8.2-4-14.58-11.66-14.58-8.76,0-14.44,7.76-14.44,19.18,0,8.17,3.35,14.86,11.65,14.86S464.45,345.63,464.45,332.1Z" transform="translate(-233.01 -220.44)"/><path class="cls-2" d="M490,350.17h-7.19l.37-3.18c-2.09,2.5-4.26,3.61-7,3.61-5.55,0-9.21-5.38-9.21-13.51,0-10.8,5.68-20,12.4-20,3,0,5.21,1.4,7.29,4.48l1.68-11.44h7.49Zm-11.25-7.65c3.58,0,6.06-4.52,6.06-11,0-4.15-1.41-6.37-4-6.37-3.46,0-5.92,4.52-5.92,10.94C474.82,340.37,476.14,342.52,478.71,342.52Z" transform="translate(-233.01 -220.44)"/><path class="cls-2" d="M515.92,350a23.63,23.63,0,0,1-7.82,1.33c-8.5,0-12.94-5-12.94-14.57,0-11.16,5.66-19.4,13.31-19.4,6.27,0,10.26,4.6,10.26,11.83a38.35,38.35,0,0,1-.93,8H502.66a8.78,8.78,0,0,0-.06,1c0,3.79,2.27,5.71,6.68,5.71a16.38,16.38,0,0,0,7.91-2.06Zm-4.28-19.35c0-.69.06-1.23.06-1.65,0-2.65-1.33-4.2-3.6-4.2-2.43,0-4.15,2.09-4.85,5.82Z" transform="translate(-233.01 -220.44)"/><path class="cls-2" d="M523.51,349.92h-1.23v-5.39H520.5v-1.16h4.8v1.16h-1.78Zm8.17,0h-1.15v-5.47h0l-1.1,5.47h-1.21l-1.08-5.47h0v5.47H526v-6.55h1.8l1.07,5.17h0l1.05-5.17h1.78Z" transform="translate(-233.01 -220.44)"/><polygon class="cls-3" points="74.25 80.83 66.11 80.83 70.77 50.09 60.36 80.83 54.78 80.83 54.1 50.27 49.19 80.83 41.57 80.83 47.93 40.83 59.66 40.83 59.98 65.58 67.9 40.83 80.56 40.83 74.25 80.83"/><path class="cls-3" d="M328.23,286.77a13.69,13.69,0,0,0-1.82-.14c-4.62,0-7,1.68-7,5,0,2,1.15,3.32,2.93,3.32C325.7,294.92,328.1,291.6,328.23,286.77Zm5.92,14.49h-6.75l.15-3.38c-2.06,2.69-4.8,3.94-8.54,3.94-4.43,0-7.45-3.62-7.45-8.86,0-7.94,5.29-12.55,14.32-12.55a24.69,24.69,0,0,1,3.31.24,8.38,8.38,0,0,0,.32-2.11c0-2.15-1.42-3-5.23-3a24.49,24.49,0,0,0-6.77.93l-1.13.33-.71.21,1.12-7.3a30.88,30.88,0,0,1,9.76-1.75c7,0,10.71,3.3,10.71,9.54a38.65,38.65,0,0,1-.67,6.45l-1.71,11.52-.28,2.08-.21,1.66-.14,1.13Z" transform="translate(-233.01 -220.44)"/><path class="cls-3" d="M340,279c0,4.1,1.89,6.94,6.17,9.07,3.28,1.63,3.8,2.11,3.8,3.59,0,2-1.46,3-4.66,3a21.57,21.57,0,0,1-7.28-1.3l-1.13,7.5.37.08,1.5.32c.48.1,1.19.19,2.12.29,1.94.18,3.43.27,4.49.27,8.55,0,12.5-3.45,12.5-10.86,0-4.45-1.65-7.08-5.72-9.06-3.4-1.62-3.78-2-3.78-3.51,0-1.76,1.35-2.67,4-2.67a44.66,44.66,0,0,1,5.83.48l1.16-7.51a50.74,50.74,0,0,0-7.15-.64C343.08,268,339.94,273,340,279Z" transform="translate(-233.01 -220.44)"/><path class="cls-3" d="M372.09,300.87a17.8,17.8,0,0,1-5.85,1.07c-4.16,0-6.43-2.53-6.43-7.16a18.55,18.55,0,0,1,.23-2.92l.5-3.17.37-2.59,3.53-22.2h8.1l-.93,4.83h4.17l-1.14,7.91h-4.16l-2.15,13.58c-.07.6-.14,1-.14,1.35,0,1.67.85,2.41,2.78,2.41a6.32,6.32,0,0,0,2.19-.3Z" transform="translate(-233.01 -220.44)"/><path class="cls-3" d="M397.89,300.58a27,27,0,0,1-8.37,1.31c-9.09,0-13.83-5-13.83-14.56,0-11.18,6-19.41,14.25-19.41,6.7,0,11,4.61,11,11.84a35.81,35.81,0,0,1-1,8h-16.2a6.42,6.42,0,0,0-.08,1c0,3.8,2.42,5.72,7.16,5.72a18.37,18.37,0,0,0,8.45-2.07Zm-4.57-19.37c0-.68.06-1.24.06-1.65,0-2.66-1.43-4.21-3.86-4.21-2.58,0-4.44,2.07-5.19,5.83Z" transform="translate(-233.01 -220.44)"/><path class="cls-3" d="M420.86,268.47a4.42,4.42,0,0,0-.83-.08c-2.68,0-4.2,1.42-6.7,5.29l.73-4.94h-7.38l-5,32.53h8.19c2.93-19.88,3.68-23.31,7.6-23.31a4.07,4.07,0,0,1,.59,0,32.5,32.5,0,0,1,3.08-9.43Z" transform="translate(-233.01 -220.44)"/><path class="cls-3" d="M447.9,262.52l-1.33,8.68a14.9,14.9,0,0,0-7.29-2.14c-6.07,0-10.35,6.17-10.35,15,0,6.08,2.88,9.74,7.61,9.74a15,15,0,0,0,6.92-2.06L442,300.83a24.13,24.13,0,0,1-7.2,1.17c-8.79,0-14.25-6.63-14.25-17.26,0-14.31,7.55-24.3,18.35-24.3a13.37,13.37,0,0,1,3.65.43l3.36.88C446.94,262.14,447.17,262.2,447.9,262.52Z" transform="translate(-233.01 -220.44)"/><path class="cls-3" d="M461.94,286.77a13.55,13.55,0,0,0-1.81-.14c-4.63,0-7,1.68-7,5,0,2,1.16,3.32,2.94,3.32C459.42,294.92,461.79,291.6,461.94,286.77Zm5.93,14.49h-6.76l.16-3.38a10,10,0,0,1-8.54,3.94c-4.43,0-7.46-3.62-7.46-8.86,0-7.94,5.28-12.55,14.33-12.55a24.68,24.68,0,0,1,3.31.24,8.67,8.67,0,0,0,.32-2.11c0-2.15-1.42-3-5.23-3a24.26,24.26,0,0,0-6.76.93l-1.16.33-.7.21,1.13-7.3a30.89,30.89,0,0,1,9.74-1.75c7,0,10.72,3.3,10.72,9.54a41.77,41.77,0,0,1-.67,6.45l-1.72,11.52-.25,2.08-.23,1.66-.15,1.13Z" transform="translate(-233.01 -220.44)"/><path class="cls-3" d="M490.63,268.47a4,4,0,0,0-.82-.08c-2.67,0-4.2,1.42-6.71,5.29l.73-4.94h-7.37l-5,32.53h8.16c2.93-19.88,3.7-23.31,7.59-23.31a2.1,2.1,0,0,1,.57,0,32.62,32.62,0,0,1,3.1-9.43Z" transform="translate(-233.01 -220.44)"/><path class="cls-3" d="M512.79,301.26h-7.71l.4-3.19a9.46,9.46,0,0,1-7.53,3.62c-6,0-9.86-5.37-9.86-13.5,0-10.82,6.07-20,13.27-20,3.17,0,5.56,1.37,7.82,4.45L511,261.26h8Zm-12-7.66c3.81,0,6.47-4.52,6.47-11,0-4.13-1.52-6.39-4.33-6.39-3.69,0-6.32,4.54-6.32,10.94C496.59,291.46,498,293.61,500.77,293.61Z" transform="translate(-233.01 -220.44)"/><path class="cls-3" d="M517.52,296.55a4.87,4.87,0,1,1,4.87,5.12A5,5,0,0,1,517.52,296.55Zm4.87,3.91a3.9,3.9,0,1,0-3.72-3.91A3.82,3.82,0,0,0,522.4,300.46Zm-.66-1.67h-1v-4.51h1.81a1.87,1.87,0,0,1,1.1.25,1.4,1.4,0,0,1,.54,1.13,1.2,1.2,0,0,1-.74,1.14l.78,2h-1.11l-.66-1.77h-.73Zm0-2.53h.56a1.23,1.23,0,0,0,.61-.09.62.62,0,0,0,.24-.52.54.54,0,0,0-.24-.45,1.28,1.28,0,0,0-.62-.08h-.54Z" transform="translate(-233.01 -220.44)"/></svg>